<svg xmlns="http://www.w3.org/2000/svg" xmlns:xlink="http://www.w3.org/1999/xlink" xmlns:lucid="lucid" width="1176" height="1010"><g transform="translate(-234 -44)" lucid:page-tab-id="0_0"><path d="M460 180c0 44.18-35.82 80-80 80s-80-35.82-80-80 35.82-80 80-80 80 35.82 80 80z" stroke="#ffdf71" stroke-width="5" fill="#fff"/><use xlink:href="#a" transform="matrix(1,0,0,1,305,105) translate(65.66514756944444 85.8203125)"/><path d="M740 640c0 44.18-35.82 80-80 80s-80-35.82-80-80 35.82-80 80-80 80 35.82 80 80z" stroke="#a3d977" stroke-width="5" fill="#fff"/><use xlink:href="#b" transform="matrix(1,0,0,1,585,565) translate(65.66514756944444 85.8203125)"/><path d="M460 480c0 44.18-35.82 80-80 80s-80-35.82-80-80 35.82-80 80-80 80 35.82 80 80z" stroke="#83bbe5" stroke-width="5" fill="#fff"/><use xlink:href="#c" transform="matrix(1,0,0,1,305,405) translate(65.66514756944444 85.8203125)"/><path d="M1020 420c0 44.18-35.82 80-80 80s-80-35.82-80-80 35.82-80 80-80 80 35.82 80 80z" stroke="#83bbe5" stroke-width="5" fill="#fff"/><use xlink:href="#d" transform="matrix(1,0,0,1,865,345) translate(65.66514756944444 85.8203125)"/><path d="M840 180c0 44.18-35.82 80-80 80s-80-35.82-80-80 35.82-80 80-80 80 35.82 80 80z" stroke="#83bbe5" stroke-width="5" fill="#fff"/><use xlink:href="#e" transform="matrix(1,0,0,1,685,105) translate(65.66514756944444 85.8203125)"/><path d="M380 263.5V379" stroke="#5e5e5e" stroke-width="2" fill="none"/><path d="M379.97 262.5H381v1.03h-2v-1.06z" fill="#5e5e5e"/><path d="M380 394.26L375.36 380h9.28z" stroke="#5e5e5e" stroke-width="2" fill="#5e5e5e"/><path d="M463.5 180H659" stroke="#5e5e5e" stroke-width="2" fill="none"/><path d="M463.53 181h-1.06l.03-.97V179h1.03z" fill="#5e5e5e"/><path d="M674.26 180L660 184.64v-9.28z" stroke="#5e5e5e" stroke-width="2" fill="#5e5e5e"/><path d="M820.6 260.8l58.8 78.4" stroke="#5e5e5e" stroke-width="2" fill="none"/><path d="M811.43 248.57l12.27 8.64-7.42 5.57zM888.57 351.43l-12.27-8.64 7.42-5.57z" stroke="#5e5e5e" stroke-width="2" fill="#5e5e5e"/><path d="M939.02 502.7l-260.87 51.23" stroke="#5e5e5e" stroke-width="2" fill="none"/><path d="M943.14 502.9l-3.95.78-.25-1.2 1.02.02h.76l2.3-.1z" fill="#5e5e5e"/><path d="M663.18 556.88l13.1-7.3 1.8 9.1z" stroke="#5e5e5e" stroke-width="2" fill="#5e5e5e"/><path d="M754.06 280.02l-88.12 259.96" stroke="#5e5e5e" stroke-width="2" fill="none"/><path d="M758.96 265.56l-.2 15-8.77-2.97zM661.04 554.44l.2-15 8.77 2.97z" stroke="#5e5e5e" stroke-width="2" fill="#5e5e5e"/><path d="M463.43 480.37l179.35 70.37" stroke="#5e5e5e" stroke-width="2" fill="none"/><path d="M463.82 479.44l-.73 1.87-.63-.24.03-1.03v-.76l-.02-.35z" fill="#5e5e5e"/><path d="M657 556.32l-15-.9 3.4-8.63z" stroke="#5e5e5e" stroke-width="2" fill="#5e5e5e"/><path d="M380 806c0-3.3 2.7-6 6-6h748c3.3 0 6 2.7 6 6v148c0 3.3-2.7 6-6 6H386c-3.3 0-6-2.7-6-6z" stroke="#5e5e5e" stroke-width="3" fill="#fff"/><path d="M1095.43 880c0 33.14-26.86 60-60 60-33.13 0-60-26.86-60-60s26.87-60 60-60c33.14 0 60 26.86 60 60z" stroke="#ffdf71" stroke-width="5" fill="#fff"/><use xlink:href="#a" transform="matrix(1,0,0,1,980.4330708661416,825) translate(45.66514756944444 62.69531249999999)"/><path d="M820 962.1c0-3.3 2.7-6 6-6h308c3.3 0 6 2.7 6 6v55.8c0 3.3-2.7 6-6 6H826c-3.3 0-6-2.7-6-6z" stroke="#000" stroke-opacity="0" stroke-width="3" fill="#fff" fill-opacity="0"/><use xlink:href="#f" transform="matrix(1,0,0,1,825,961.1111111111111) translate(33.6469184027778 37.60546875)"/><use xlink:href="#g" transform="matrix(1,0,0,1,825,961.1111111111111) translate(189.67230902777777 37.60546875)"/><path d="M1320 661.42c0 44.18-35.82 80-80 80s-80-35.82-80-80c0-44.2 35.82-80 80-80s80 35.8 80 80z" stroke="#a3d977" stroke-width="5" fill="#fff"/><use xlink:href="#b" transform="matrix(1,0,0,1,1165,586.4173228346456) translate(65.66514756944444 85.8203125)"/><path d="M1320 420c0 44.18-35.82 80-80 80s-80-35.82-80-80 35.82-80 80-80 80 35.82 80 80z" stroke="#83bbe5" stroke-width="5" fill="#fff"/><use xlink:href="#h" transform="matrix(1,0,0,1,1165,345) translate(65.66514756944444 85.8203125)"/><path d="M1023.5 420H1139" stroke="#5e5e5e" stroke-width="2" fill="none"/><path d="M1023.53 421h-1.06l.03-.97V419h1.03z" fill="#5e5e5e"/><path d="M1154.26 420l-14.26 4.64v-9.28z" stroke="#5e5e5e" stroke-width="2" fill="#5e5e5e"/><path d="M1240 503.5v56.92" stroke="#5e5e5e" stroke-width="2" fill="none"/><path d="M1239.97 502.5h1.03v1.03h-2v-1.06z" fill="#5e5e5e"/><path d="M1240 575.68l-4.64-14.26h9.28z" stroke="#5e5e5e" stroke-width="2" fill="#5e5e5e"/><path d="M260 306c0-3.3 2.7-6 6-6h108c3.3 0 6 2.7 6 6v48c0 3.3-2.7 6-6 6H266c-3.3 0-6-2.7-6-6z" stroke="#000" stroke-opacity="0" stroke-width="3" fill="#fff" fill-opacity="0"/><use xlink:href="#i" transform="matrix(1,0,0,1,265,305) translate(46.33192274305556 32.48046874999999)"/><path d="M500 126c0-3.3 2.7-6 6-6h108c3.3 0 6 2.7 6 6v48c0 3.3-2.7 6-6 6H506c-3.3 0-6-2.7-6-6z" stroke="#000" stroke-opacity="0" stroke-width="3" fill="#fff" fill-opacity="0"/><use xlink:href="#j" transform="matrix(1,0,0,1,505,125) translate(46.33192274305556 32.48046874999999)"/><path d="M460 527.42c0-3.32 2.7-6 6-6h108c3.3 0 6 2.68 6 6v48c0 3.3-2.7 6-6 6H466c-3.3 0-6-2.7-6-6z" stroke="#000" stroke-opacity="0" stroke-width="3" fill="#fff" fill-opacity="0"/><use xlink:href="#k" transform="matrix(1,0,0,1,465,526.4173228346456) translate(46.33192274305556 32.48046874999999)"/><path d="M600 326c0-3.3 2.7-6 6-6h108c3.3 0 6 2.7 6 6v48c0 3.3-2.7 6-6 6H606c-3.3 0-6-2.7-6-6z" stroke="#000" stroke-opacity="0" stroke-width="3" fill="#fff" fill-opacity="0"/><use xlink:href="#l" transform="matrix(1,0,0,1,605,325) translate(46.33192274305556 32.48046874999999)"/><path d="M855.43 246c0-3.3 2.7-6 6-6h108c3.32 0 6 2.7 6 6v48c0 3.3-2.68 6-6 6h-108c-3.3 0-6-2.7-6-6z" stroke="#000" stroke-opacity="0" stroke-width="3" fill="#fff" fill-opacity="0"/><use xlink:href="#m" transform="matrix(1,0,0,1,860.4330708661416,245) translate(46.33192274305556 32.48046874999999)"/><path d="M780 546c0-3.3 2.7-6 6-6h108c3.3 0 6 2.7 6 6v48c0 3.3-2.7 6-6 6H786c-3.3 0-6-2.7-6-6z" stroke="#000" stroke-opacity="0" stroke-width="3" fill="#fff" fill-opacity="0"/><use xlink:href="#l" transform="matrix(1,0,0,1,785,545) translate(46.33192274305556 32.48046874999999)"/><path d="M1030 366c0-3.3 2.7-6 6-6h108c3.3 0 6 2.7 6 6v48c0 3.3-2.7 6-6 6h-108c-3.3 0-6-2.7-6-6z" stroke="#000" stroke-opacity="0" stroke-width="3" fill="#fff" fill-opacity="0"/><use xlink:href="#j" transform="matrix(1,0,0,1,1035,365) translate(46.33192274305556 32.48046874999999)"/><path d="M1260 516.7c0-3.3 2.7-6 6-6h108c3.3 0 6 2.7 6 6v48c0 3.32-2.7 6-6 6h-108c-3.3 0-6-2.68-6-6z" stroke="#000" stroke-opacity="0" stroke-width="3" fill="#fff" fill-opacity="0"/><use xlink:href="#m" transform="matrix(1,0,0,1,1265,515.7086614173228) translate(46.33192274305556 32.48046874999999)"/><defs><path fill="#333" d="M614-1226c-167 1-283 53-283 213 0 183 186 193 334 234 230 63 463 120 463 409 0 286-219 387-518 390C309 23 131-98 79-338l185-37c34 165 149 248 351 246 184-2 324-58 324-238 0-203-207-221-372-266-210-57-422-111-422-377 0-267 201-356 470-360 279-5 430 101 480 324l-188 33c-28-141-121-215-293-213" id="n"/><use transform="matrix(0.015190972222222219,0,0,0.015190972222222219,0,0)" xlink:href="#n" id="a"/><path fill="#333" d="M614-836l333-513h205L717-705 1193 0H988L614-573 241 0H36l476-705-435-644h205" id="o"/><use transform="matrix(0.015190972222222219,0,0,0.015190972222222219,0,0)" xlink:href="#o" id="b"/><path fill="#333" d="M650-1214c-281 0-336 244-336 533 0 295 60 546 347 546 188 0 263-142 322-282l159 65C1058-155 935 20 659 20c-401 0-546-295-546-701 0-407 135-689 536-689 264 0 391 146 466 335l-168 65c-47-129-127-244-297-244" id="p"/><use transform="matrix(0.015190972222222219,0,0,0.015190972222222219,0,0)" xlink:href="#p" id="c"/><path fill="#333" d="M802-711c201 25 350 118 350 331C1152-95 921 0 634 0H162v-1349c401 9 908-74 908 327 0 184-111 275-268 311zm-224-69c174-2 300-51 300-218 0-163-124-198-302-198H353v416h225zM353-153c281-2 612 44 606-244-5-271-329-233-606-234v478" id="q"/><use transform="matrix(0.015190972222222219,0,0,0.015190972222222219,0,0)" xlink:href="#q" id="d"/><path fill="#333" d="M1034 0L896-382H333L196 0H0l510-1349h217L1228 0h-194zM847-531c-77-225-157-447-231-674-69 231-154 451-232 674h463" id="r"/><use transform="matrix(0.015190972222222219,0,0,0.015190972222222219,0,0)" xlink:href="#r" id="e"/><path fill="#333" d="M385-1193v494h676v158H385V0H194v-1349h891v156H385" id="s"/><path fill="#333" d="M839-1102c70 0 148 7 206 17v167c-112-18-268-36-363 15-129 69-208 203-208 395V0H294c-10-367 32-789-52-1082h171c21 75 41 161 48 250h5c67-152 152-270 373-270" id="t"/><path fill="#333" d="M615-1102c343 0 484 203 482 560-1 347-147 562-488 562-336 0-475-219-479-562-4-349 156-560 485-560zm-8 989c240 0 301-180 301-429 0-245-55-427-290-427-236 0-299 181-299 427 0 243 61 429 288 429" id="u"/><path fill="#333" d="M706-1102c241 0 344 136 343 381V0H868v-695c1-168-57-273-220-268-190 6-283 138-283 336V0H185c-3-360 6-732-6-1082h170c4 54 7 126 8 185h3c63-121 164-204 346-205" id="v"/><path fill="#333" d="M682 16c-209 0-323-80-324-285v-671H190v-142h170l58-282h120v282h432v142H538v652c2 114 60 155 182 155 106 0 209-16 297-34v137C921-4 806 16 682 16" id="w"/><path fill="#333" d="M745-142h380V0H143v-142h422v-798H246v-142h499v940zM545-1292v-192h200v192H545" id="x"/><path fill="#333" d="M617-1102c355 0 481 238 477 599H322c5 222 84 388 301 388 144 0 244-59 284-166l158 45C1002-72 854 20 623 20c-342 0-490-220-490-568 0-346 151-554 484-554zm291 461c-18-192-90-328-289-328-194 0-287 128-295 328h584" id="y"/><g id="f"><use transform="matrix(0.014105902777777776,0,0,0.014105902777777776,0,0)" xlink:href="#s"/><use transform="matrix(0.014105902777777776,0,0,0.014105902777777776,17.336154513888886,0)" xlink:href="#t"/><use transform="matrix(0.014105902777777776,0,0,0.014105902777777776,34.67230902777777,0)" xlink:href="#u"/><use transform="matrix(0.014105902777777776,0,0,0.014105902777777776,52.00846354166666,0)" xlink:href="#v"/><use transform="matrix(0.014105902777777776,0,0,0.014105902777777776,69.34461805555554,0)" xlink:href="#w"/><use transform="matrix(0.014105902777777776,0,0,0.014105902777777776,86.68077256944443,0)" xlink:href="#x"/><use transform="matrix(0.014105902777777776,0,0,0.014105902777777776,104.01692708333331,0)" xlink:href="#y"/><use transform="matrix(0.014105902777777776,0,0,0.014105902777777776,121.35308159722221,0)" xlink:href="#t"/></g><path fill="#333" d="M102-681c0-398 126-689 513-689 165 0 291 58 379 174s132 287 132 515c0 353-105 610-380 685 49 143 111 234 276 240 36 1 86-7 115-13v134c-94 24-238 34-327-3-143-59-210-191-259-346-336-41-449-320-449-697zm749 406c94-160 97-656-5-807-57-85-130-132-231-132-104 0-178 47-234 132-101 153-99 655 1 809 57 89 130 138 232 138 109 0 184-49 237-140" id="z"/><path fill="#333" d="M528 20c-247 0-343-132-343-381v-721h180v686c-4 177 45 284 224 277 194-8 279-136 279-336v-627h181c3 360-6 732 6 1082H885c-4-54-7-126-8-185h-3C809-64 714 20 528 20" id="A"/><g id="g"><use transform="matrix(0.014105902777777776,0,0,0.014105902777777776,0,0)" xlink:href="#z"/><use transform="matrix(0.014105902777777776,0,0,0.014105902777777776,17.336154513888886,0)" xlink:href="#A"/><use transform="matrix(0.014105902777777776,0,0,0.014105902777777776,34.67230902777777,0)" xlink:href="#y"/><use transform="matrix(0.014105902777777776,0,0,0.014105902777777776,52.00846354166666,0)" xlink:href="#A"/><use transform="matrix(0.014105902777777776,0,0,0.014105902777777776,69.34461805555554,0)" xlink:href="#y"/></g><path fill="#333" d="M473-1349c438-1 655 221 652 661C1122-268 945-8 532 0H162v-1349h311zm42 1193c308-4 416-205 418-532 2-330-131-509-459-505H353v1037h162" id="B"/><use transform="matrix(0.015190972222222219,0,0,0.015190972222222219,0,0)" xlink:href="#B" id="h"/><path fill="#333" d="M672-881c271 0 424 163 424 435 0 291-160 466-455 466-367 0-490-287-490-662 0-324 85-568 293-680 129-70 351-59 460 16 73 50 125 123 153 223l-172 31c-31-108-107-172-232-172-259 0-316 252-323 529 59-113 178-186 342-186zm-37 756c186 0 278-124 278-313s-96-304-284-304c-163 0-281 93-281 261 0 157 65 270 168 327 35 19 75 29 119 29" id="C"/><use transform="matrix(0.014105902777777773,0,0,0.014105902777777773,0,0)" xlink:href="#C" id="i"/><path fill="#333" d="M611-1370c266 0 451 106 451 368 0 147-77 243-154 327-132 144-316 255-451 395-42 44-75 87-96 134h723V0H144v-117c124-264 387-411 582-603 73-72 151-147 151-271 0-161-104-231-266-231-163 0-249 90-268 238l-184-17c35-233 185-369 452-369" id="D"/><use transform="matrix(0.014105902777777773,0,0,0.014105902777777773,0,0)" xlink:href="#D" id="j"/><path fill="#333" d="M809-709c168 33 285 134 285 331 0 277-191 398-480 398-287 0-481-120-481-396 0-192 118-296 281-331v-4c-145-39-248-139-248-313 0-238 192-346 444-346 211 0 357 75 422 217 19 41 27 86 27 131 0 172-101 274-250 309v4zm-197-70c168 0 260-73 260-233 0-158-100-224-262-224-160 0-260 68-260 224 0 155 97 232 262 233zm4 664c194 1 291-91 291-280 0-172-115-249-297-249-178 0-291 85-291 253 0 186 106 275 297 276" id="E"/><use transform="matrix(0.014105902777777773,0,0,0.014105902777777773,0,0)" xlink:href="#E" id="k"/><path fill="#333" d="M937-319V0H757v-319H103v-140l635-890h199v888h188v142H937zm-180-835L257-461h500v-693" id="F"/><use transform="matrix(0.014105902777777773,0,0,0.014105902777777773,0,0)" xlink:href="#F" id="l"/><path fill="#333" d="M148-1120c216-7 379-89 463-229h166v1204h353V0H157v-145h439v-1021c-79 124-254 184-448 194v-148" id="G"/><use transform="matrix(0.014105902777777773,0,0,0.014105902777777773,0,0)" xlink:href="#G" id="m"/></defs></g></svg>