<svg xmlns="http://www.w3.org/2000/svg" xmlns:xlink="http://www.w3.org/1999/xlink" xmlns:lucid="lucid" width="516" height="320"><g transform="translate(-160 -80)" lucid:page-tab-id="0_0"><path d="M180 100h420v160H180z" stroke="#000" stroke-width="2" fill-opacity="0"/><path d="M280 160c0 11.05-8.95 20-20 20s-20-8.95-20-20 8.95-20 20-20 20 8.95 20 20zM320 200c0 11.05-8.95 20-20 20s-20-8.95-20-20 8.95-20 20-20 20 8.95 20 20z" stroke="#000" fill="#3aa6dd"/><path d="M540 160c0 11.05-8.95 20-20 20s-20-8.95-20-20 8.95-20 20-20 20 8.95 20 20z" stroke="#000" fill="#ffdf71"/><path d="M460 200c0 11.05-8.95 20-20 20s-20-8.95-20-20 8.95-20 20-20 20 8.95 20 20z" stroke="#000" fill="#c92d39"/><path d="M360 180c0 35.9-31.34 65-70 65s-70-29.1-70-65 31.34-65 70-65 70 29.1 70 65z" fill-opacity="0"/><path d="M359.13 190.05l-.52 2.9-1.06 4.2-.9 2.68m-1.82 4.7l-.35.84-2 4-2.33 3.9-.1.15m-2.9 4.12l-2.6 3.2-3.25 3.5-.9.82m-3.76 3.37l-2.76 2.22-4.12 2.85-1.33.8m-4.4 2.47l-3.2 1.6-4.8 1.98-1.26.42m-4.8 1.52l-3.98 1-5.25.94-.68.07m-5.02.52L290 245l-5.05-.18m-5.02-.5l-.73-.1-5.24-.93-3.92-1m-4.8-1.53l-1.33-.43-4.77-1.98-3.16-1.6m-4.4-2.47l-1.37-.82-4.12-2.86-2.72-2.2m-3.76-3.36l-.92-.86-3.26-3.5-2.55-3.16m-2.9-4.12l-.14-.18-2.32-3.9-2-4-.32-.8m-1.83-4.7l-.9-2.73-1.07-4.2-.5-2.85m-.65-5l-.08-.72L220 180l.16-4.37.07-.67m.64-5l.52-2.9 1.06-4.2.9-2.7m1.82-4.7l.35-.83 2-4 2.33-3.9.1-.15m2.9-4.12l2.6-3.2 3.25-3.5.9-.82m3.76-3.37l2.76-2.22 4.12-2.85 1.33-.8m4.4-2.47l3.2-1.6 4.8-1.98 1.26-.42m4.8-1.52l3.98-1 5.25-.94.68-.07m5.02-.52L290 115l5.05.18m5.02.5l.73.1 5.24.93 3.92 1m4.8 1.53l1.33.43 4.77 1.98 3.16 1.6m4.4 2.47l1.37.82 4.12 2.86 2.72 2.2m3.76 3.36l.92.86 3.26 3.5 2.55 3.16m2.9 4.12l.14.18 2.32 3.9 2 4 .32.8m1.83 4.7l.9 2.73 1.07 4.2.5 2.85m.65 5l.08.72.15 4.33-.16 4.37-.07.67" stroke="#000" fill="none"/><path d="M181.5 340h437.88M181.54 340H180" stroke="#000" stroke-width="3" fill="none"/><path d="M635.15 340l-14.27 4.64v-9.28z" stroke="#000" stroke-width="3"/><path d="M220 340h60v40h-60z" stroke="#000" stroke-opacity="0" stroke-width="3" fill="#fff" fill-opacity="0"/><use xlink:href="#a" transform="matrix(1,0,0,1,225,345) translate(19.59912109375 20.021484375)"/><path d="M380 340h60v40h-60z" stroke="#000" stroke-opacity="0" stroke-width="3" fill="#fff" fill-opacity="0"/><use xlink:href="#b" transform="matrix(1,0,0,1,385,345) translate(19.59912109375 20.021484375)"/><path d="M520 340h60v40h-60z" stroke="#000" stroke-opacity="0" stroke-width="3" fill="#fff" fill-opacity="0"/><use xlink:href="#c" transform="matrix(1,0,0,1,525,345) translate(19.59912109375 20.021484375)"/><path d="M290 246v22.5h-40v55.12" stroke="#000" fill="none"/><path d="M290 245.5l.5-.02v.53h-1v-.52z"/><path d="M250 338.38l-4.64-14.26h9.28z" stroke="#000"/><path d="M440 221v59.25h-28v43.37" stroke="#000" fill="none"/><path d="M439.98 220.5l.52-.02v.53h-1v-.56z"/><path d="M412 338.38l-4.64-14.26h9.28z" stroke="#000"/><path d="M520 181v29h31v113.62" stroke="#000" fill="none"/><path d="M519.98 180.5l.52-.02v.53h-1v-.56z"/><path d="M551 338.38l-4.64-14.26h9.28z" stroke="#000"/><defs><path d="M138-1120c207-4 339-93 415-229h266v1140h323V0H149v-209h389v-891c-70 121-216 187-400 194v-214" id="d"/><use transform="matrix(0.0087890625,0,0,0.0087890625,0,0)" xlink:href="#d" id="a"/><path d="M135-968c34-256 187-402 480-402 217 0 371 75 441 220 45 93 40 219-8 308-114 212-348 323-508 488-38 39-66 80-85 123h654V0H123v-195c112-245 321-399 515-560 57-48 107-96 142-157 14-26 22-53 22-80-1-104-73-156-185-154-131 2-181 74-199 194" id="e"/><use transform="matrix(0.0087890625,0,0,0.0087890625,0,0)" xlink:href="#e" id="b"/><path d="M788-691c191 26 337 112 337 315 0 286-214 399-510 399-306 0-483-128-522-391l286-25c18 124 91 190 235 188 132-2 223-58 223-188 0-176-191-182-378-179v-227c176 5 345-9 345-176 0-115-82-171-200-171s-198 55-206 169l-281-20c34-252 213-373 492-373 224 0 381 74 451 224 20 43 29 89 29 136 0 195-130 279-301 315v4" id="f"/><use transform="matrix(0.0087890625,0,0,0.0087890625,0,0)" xlink:href="#f" id="c"/></defs></g></svg>